<mxfile host="app.diagrams.net" modified="2022-05-26T03:00:38.421Z" agent="5.0 (Windows NT 10.0; Win64; x64) AppleWebKit/537.36 (KHTML, like Gecko) Chrome/101.0.4951.67 Safari/537.36" etag="iZQsZMbK-NTXxsx8kwrC" version="18.1.2" type="github" pages="5">
  <diagram id="C5RBs43oDa-KdzZeNtuy" name="Page-1">
    <mxGraphModel dx="1102" dy="582" grid="1" gridSize="10" guides="1" tooltips="1" connect="1" arrows="1" fold="1" page="1" pageScale="1" pageWidth="827" pageHeight="1169" math="0" shadow="0">
      <root>
        <mxCell id="WIyWlLk6GJQsqaUBKTNV-0" />
        <mxCell id="WIyWlLk6GJQsqaUBKTNV-1" parent="WIyWlLk6GJQsqaUBKTNV-0" />
        <mxCell id="zkfFHV4jXpPFQw0GAbJ--0" value="Person" style="swimlane;fontStyle=2;align=center;verticalAlign=top;childLayout=stackLayout;horizontal=1;startSize=26;horizontalStack=0;resizeParent=1;resizeLast=0;collapsible=1;marginBottom=0;rounded=0;shadow=0;strokeWidth=1;" parent="WIyWlLk6GJQsqaUBKTNV-1" vertex="1">
          <mxGeometry x="220" y="120" width="160" height="138" as="geometry">
            <mxRectangle x="230" y="140" width="160" height="26" as="alternateBounds" />
          </mxGeometry>
        </mxCell>
        <mxCell id="zkfFHV4jXpPFQw0GAbJ--1" value="Name" style="text;align=left;verticalAlign=top;spacingLeft=4;spacingRight=4;overflow=hidden;rotatable=0;points=[[0,0.5],[1,0.5]];portConstraint=eastwest;" parent="zkfFHV4jXpPFQw0GAbJ--0" vertex="1">
          <mxGeometry y="26" width="160" height="26" as="geometry" />
        </mxCell>
        <mxCell id="zkfFHV4jXpPFQw0GAbJ--2" value="Phone Number" style="text;align=left;verticalAlign=top;spacingLeft=4;spacingRight=4;overflow=hidden;rotatable=0;points=[[0,0.5],[1,0.5]];portConstraint=eastwest;rounded=0;shadow=0;html=0;" parent="zkfFHV4jXpPFQw0GAbJ--0" vertex="1">
          <mxGeometry y="52" width="160" height="26" as="geometry" />
        </mxCell>
        <mxCell id="zkfFHV4jXpPFQw0GAbJ--3" value="Email Address" style="text;align=left;verticalAlign=top;spacingLeft=4;spacingRight=4;overflow=hidden;rotatable=0;points=[[0,0.5],[1,0.5]];portConstraint=eastwest;rounded=0;shadow=0;html=0;" parent="zkfFHV4jXpPFQw0GAbJ--0" vertex="1">
          <mxGeometry y="78" width="160" height="26" as="geometry" />
        </mxCell>
        <mxCell id="zkfFHV4jXpPFQw0GAbJ--4" value="" style="line;html=1;strokeWidth=1;align=left;verticalAlign=middle;spacingTop=-1;spacingLeft=3;spacingRight=3;rotatable=0;labelPosition=right;points=[];portConstraint=eastwest;" parent="zkfFHV4jXpPFQw0GAbJ--0" vertex="1">
          <mxGeometry y="104" width="160" height="8" as="geometry" />
        </mxCell>
        <mxCell id="zkfFHV4jXpPFQw0GAbJ--5" value="Purchase Parking Pass" style="text;align=left;verticalAlign=top;spacingLeft=4;spacingRight=4;overflow=hidden;rotatable=0;points=[[0,0.5],[1,0.5]];portConstraint=eastwest;" parent="zkfFHV4jXpPFQw0GAbJ--0" vertex="1">
          <mxGeometry y="112" width="160" height="26" as="geometry" />
        </mxCell>
        <mxCell id="zkfFHV4jXpPFQw0GAbJ--6" value="Student" style="swimlane;fontStyle=0;align=center;verticalAlign=top;childLayout=stackLayout;horizontal=1;startSize=26;horizontalStack=0;resizeParent=1;resizeLast=0;collapsible=1;marginBottom=0;rounded=0;shadow=0;strokeWidth=1;" parent="WIyWlLk6GJQsqaUBKTNV-1" vertex="1">
          <mxGeometry x="120" y="360" width="160" height="138" as="geometry">
            <mxRectangle x="130" y="380" width="160" height="26" as="alternateBounds" />
          </mxGeometry>
        </mxCell>
        <mxCell id="zkfFHV4jXpPFQw0GAbJ--7" value="Student Number" style="text;align=left;verticalAlign=top;spacingLeft=4;spacingRight=4;overflow=hidden;rotatable=0;points=[[0,0.5],[1,0.5]];portConstraint=eastwest;" parent="zkfFHV4jXpPFQw0GAbJ--6" vertex="1">
          <mxGeometry y="26" width="160" height="26" as="geometry" />
        </mxCell>
        <mxCell id="zkfFHV4jXpPFQw0GAbJ--8" value="Average Mark" style="text;align=left;verticalAlign=top;spacingLeft=4;spacingRight=4;overflow=hidden;rotatable=0;points=[[0,0.5],[1,0.5]];portConstraint=eastwest;rounded=0;shadow=0;html=0;" parent="zkfFHV4jXpPFQw0GAbJ--6" vertex="1">
          <mxGeometry y="52" width="160" height="26" as="geometry" />
        </mxCell>
        <mxCell id="zkfFHV4jXpPFQw0GAbJ--9" value="" style="line;html=1;strokeWidth=1;align=left;verticalAlign=middle;spacingTop=-1;spacingLeft=3;spacingRight=3;rotatable=0;labelPosition=right;points=[];portConstraint=eastwest;" parent="zkfFHV4jXpPFQw0GAbJ--6" vertex="1">
          <mxGeometry y="78" width="160" height="8" as="geometry" />
        </mxCell>
        <mxCell id="zkfFHV4jXpPFQw0GAbJ--10" value="Is Eligible To Enroll" style="text;align=left;verticalAlign=top;spacingLeft=4;spacingRight=4;overflow=hidden;rotatable=0;points=[[0,0.5],[1,0.5]];portConstraint=eastwest;fontStyle=4" parent="zkfFHV4jXpPFQw0GAbJ--6" vertex="1">
          <mxGeometry y="86" width="160" height="26" as="geometry" />
        </mxCell>
        <mxCell id="zkfFHV4jXpPFQw0GAbJ--11" value="Get Seminars Taken" style="text;align=left;verticalAlign=top;spacingLeft=4;spacingRight=4;overflow=hidden;rotatable=0;points=[[0,0.5],[1,0.5]];portConstraint=eastwest;" parent="zkfFHV4jXpPFQw0GAbJ--6" vertex="1">
          <mxGeometry y="112" width="160" height="26" as="geometry" />
        </mxCell>
        <mxCell id="zkfFHV4jXpPFQw0GAbJ--12" value="" style="endArrow=block;endSize=10;endFill=0;shadow=0;strokeWidth=1;rounded=0;edgeStyle=elbowEdgeStyle;elbow=vertical;" parent="WIyWlLk6GJQsqaUBKTNV-1" source="zkfFHV4jXpPFQw0GAbJ--6" target="zkfFHV4jXpPFQw0GAbJ--0" edge="1">
          <mxGeometry width="160" relative="1" as="geometry">
            <mxPoint x="200" y="203" as="sourcePoint" />
            <mxPoint x="200" y="203" as="targetPoint" />
          </mxGeometry>
        </mxCell>
        <mxCell id="zkfFHV4jXpPFQw0GAbJ--13" value="Professor" style="swimlane;fontStyle=0;align=center;verticalAlign=top;childLayout=stackLayout;horizontal=1;startSize=26;horizontalStack=0;resizeParent=1;resizeLast=0;collapsible=1;marginBottom=0;rounded=0;shadow=0;strokeWidth=1;" parent="WIyWlLk6GJQsqaUBKTNV-1" vertex="1">
          <mxGeometry x="330" y="360" width="160" height="70" as="geometry">
            <mxRectangle x="340" y="380" width="170" height="26" as="alternateBounds" />
          </mxGeometry>
        </mxCell>
        <mxCell id="zkfFHV4jXpPFQw0GAbJ--14" value="Salary" style="text;align=left;verticalAlign=top;spacingLeft=4;spacingRight=4;overflow=hidden;rotatable=0;points=[[0,0.5],[1,0.5]];portConstraint=eastwest;" parent="zkfFHV4jXpPFQw0GAbJ--13" vertex="1">
          <mxGeometry y="26" width="160" height="26" as="geometry" />
        </mxCell>
        <mxCell id="zkfFHV4jXpPFQw0GAbJ--15" value="" style="line;html=1;strokeWidth=1;align=left;verticalAlign=middle;spacingTop=-1;spacingLeft=3;spacingRight=3;rotatable=0;labelPosition=right;points=[];portConstraint=eastwest;" parent="zkfFHV4jXpPFQw0GAbJ--13" vertex="1">
          <mxGeometry y="52" width="160" height="8" as="geometry" />
        </mxCell>
        <mxCell id="zkfFHV4jXpPFQw0GAbJ--16" value="" style="endArrow=block;endSize=10;endFill=0;shadow=0;strokeWidth=1;rounded=0;edgeStyle=elbowEdgeStyle;elbow=vertical;" parent="WIyWlLk6GJQsqaUBKTNV-1" source="zkfFHV4jXpPFQw0GAbJ--13" target="zkfFHV4jXpPFQw0GAbJ--0" edge="1">
          <mxGeometry width="160" relative="1" as="geometry">
            <mxPoint x="210" y="373" as="sourcePoint" />
            <mxPoint x="310" y="271" as="targetPoint" />
          </mxGeometry>
        </mxCell>
        <mxCell id="zkfFHV4jXpPFQw0GAbJ--17" value="Address" style="swimlane;fontStyle=0;align=center;verticalAlign=top;childLayout=stackLayout;horizontal=1;startSize=26;horizontalStack=0;resizeParent=1;resizeLast=0;collapsible=1;marginBottom=0;rounded=0;shadow=0;strokeWidth=1;" parent="WIyWlLk6GJQsqaUBKTNV-1" vertex="1">
          <mxGeometry x="508" y="120" width="160" height="216" as="geometry">
            <mxRectangle x="550" y="140" width="160" height="26" as="alternateBounds" />
          </mxGeometry>
        </mxCell>
        <mxCell id="zkfFHV4jXpPFQw0GAbJ--18" value="Street" style="text;align=left;verticalAlign=top;spacingLeft=4;spacingRight=4;overflow=hidden;rotatable=0;points=[[0,0.5],[1,0.5]];portConstraint=eastwest;" parent="zkfFHV4jXpPFQw0GAbJ--17" vertex="1">
          <mxGeometry y="26" width="160" height="26" as="geometry" />
        </mxCell>
        <mxCell id="zkfFHV4jXpPFQw0GAbJ--19" value="City" style="text;align=left;verticalAlign=top;spacingLeft=4;spacingRight=4;overflow=hidden;rotatable=0;points=[[0,0.5],[1,0.5]];portConstraint=eastwest;rounded=0;shadow=0;html=0;" parent="zkfFHV4jXpPFQw0GAbJ--17" vertex="1">
          <mxGeometry y="52" width="160" height="26" as="geometry" />
        </mxCell>
        <mxCell id="zkfFHV4jXpPFQw0GAbJ--20" value="State" style="text;align=left;verticalAlign=top;spacingLeft=4;spacingRight=4;overflow=hidden;rotatable=0;points=[[0,0.5],[1,0.5]];portConstraint=eastwest;rounded=0;shadow=0;html=0;" parent="zkfFHV4jXpPFQw0GAbJ--17" vertex="1">
          <mxGeometry y="78" width="160" height="26" as="geometry" />
        </mxCell>
        <mxCell id="zkfFHV4jXpPFQw0GAbJ--21" value="Postal Code" style="text;align=left;verticalAlign=top;spacingLeft=4;spacingRight=4;overflow=hidden;rotatable=0;points=[[0,0.5],[1,0.5]];portConstraint=eastwest;rounded=0;shadow=0;html=0;" parent="zkfFHV4jXpPFQw0GAbJ--17" vertex="1">
          <mxGeometry y="104" width="160" height="26" as="geometry" />
        </mxCell>
        <mxCell id="zkfFHV4jXpPFQw0GAbJ--22" value="Country" style="text;align=left;verticalAlign=top;spacingLeft=4;spacingRight=4;overflow=hidden;rotatable=0;points=[[0,0.5],[1,0.5]];portConstraint=eastwest;rounded=0;shadow=0;html=0;" parent="zkfFHV4jXpPFQw0GAbJ--17" vertex="1">
          <mxGeometry y="130" width="160" height="26" as="geometry" />
        </mxCell>
        <mxCell id="zkfFHV4jXpPFQw0GAbJ--23" value="" style="line;html=1;strokeWidth=1;align=left;verticalAlign=middle;spacingTop=-1;spacingLeft=3;spacingRight=3;rotatable=0;labelPosition=right;points=[];portConstraint=eastwest;" parent="zkfFHV4jXpPFQw0GAbJ--17" vertex="1">
          <mxGeometry y="156" width="160" height="8" as="geometry" />
        </mxCell>
        <mxCell id="zkfFHV4jXpPFQw0GAbJ--24" value="Validate" style="text;align=left;verticalAlign=top;spacingLeft=4;spacingRight=4;overflow=hidden;rotatable=0;points=[[0,0.5],[1,0.5]];portConstraint=eastwest;" parent="zkfFHV4jXpPFQw0GAbJ--17" vertex="1">
          <mxGeometry y="164" width="160" height="26" as="geometry" />
        </mxCell>
        <mxCell id="zkfFHV4jXpPFQw0GAbJ--25" value="Output As Label" style="text;align=left;verticalAlign=top;spacingLeft=4;spacingRight=4;overflow=hidden;rotatable=0;points=[[0,0.5],[1,0.5]];portConstraint=eastwest;" parent="zkfFHV4jXpPFQw0GAbJ--17" vertex="1">
          <mxGeometry y="190" width="160" height="26" as="geometry" />
        </mxCell>
        <mxCell id="zkfFHV4jXpPFQw0GAbJ--26" value="" style="endArrow=open;shadow=0;strokeWidth=1;rounded=0;endFill=1;edgeStyle=elbowEdgeStyle;elbow=vertical;" parent="WIyWlLk6GJQsqaUBKTNV-1" source="zkfFHV4jXpPFQw0GAbJ--0" target="zkfFHV4jXpPFQw0GAbJ--17" edge="1">
          <mxGeometry x="0.5" y="41" relative="1" as="geometry">
            <mxPoint x="380" y="192" as="sourcePoint" />
            <mxPoint x="540" y="192" as="targetPoint" />
            <mxPoint x="-40" y="32" as="offset" />
          </mxGeometry>
        </mxCell>
        <mxCell id="zkfFHV4jXpPFQw0GAbJ--27" value="0..1" style="resizable=0;align=left;verticalAlign=bottom;labelBackgroundColor=none;fontSize=12;" parent="zkfFHV4jXpPFQw0GAbJ--26" connectable="0" vertex="1">
          <mxGeometry x="-1" relative="1" as="geometry">
            <mxPoint y="4" as="offset" />
          </mxGeometry>
        </mxCell>
        <mxCell id="zkfFHV4jXpPFQw0GAbJ--28" value="1" style="resizable=0;align=right;verticalAlign=bottom;labelBackgroundColor=none;fontSize=12;" parent="zkfFHV4jXpPFQw0GAbJ--26" connectable="0" vertex="1">
          <mxGeometry x="1" relative="1" as="geometry">
            <mxPoint x="-7" y="4" as="offset" />
          </mxGeometry>
        </mxCell>
        <mxCell id="zkfFHV4jXpPFQw0GAbJ--29" value="lives at" style="text;html=1;resizable=0;points=[];;align=center;verticalAlign=middle;labelBackgroundColor=none;rounded=0;shadow=0;strokeWidth=1;fontSize=12;" parent="zkfFHV4jXpPFQw0GAbJ--26" vertex="1" connectable="0">
          <mxGeometry x="0.5" y="49" relative="1" as="geometry">
            <mxPoint x="-38" y="40" as="offset" />
          </mxGeometry>
        </mxCell>
      </root>
    </mxGraphModel>
  </diagram>
  <diagram name="20220329" id="wg0YifrpdDG7ZfPOjYaS">
    <mxGraphModel dx="1422" dy="738" grid="1" gridSize="10" guides="1" tooltips="1" connect="1" arrows="1" fold="1" page="1" pageScale="1" pageWidth="827" pageHeight="1169" math="0" shadow="0">
      <root>
        <mxCell id="8a7OxCptvkne7IyluZtV-0" />
        <mxCell id="8a7OxCptvkne7IyluZtV-1" parent="8a7OxCptvkne7IyluZtV-0" />
        <mxCell id="8a7OxCptvkne7IyluZtV-2" value="&lt;span style=&quot;font-family: &amp;#34;calibri&amp;#34; ; font-size: 16px ; font-weight: 400 ; text-align: left&quot;&gt;業務報價系統&lt;/span&gt;" style="swimlane;html=1;childLayout=stackLayout;resizeParent=1;resizeParentMax=0;startSize=20;fillColor=#bac8d3;strokeColor=#23445d;" parent="8a7OxCptvkne7IyluZtV-1" vertex="1">
          <mxGeometry width="720" height="1160" as="geometry">
            <mxRectangle x="10" y="10" width="130" height="20" as="alternateBounds" />
          </mxGeometry>
        </mxCell>
        <mxCell id="8a7OxCptvkne7IyluZtV-3" value="填單人" style="swimlane;html=1;startSize=20;fillColor=#f5f5f5;strokeColor=#666666;fontColor=#333333;" parent="8a7OxCptvkne7IyluZtV-2" vertex="1">
          <mxGeometry y="20" width="120" height="1140" as="geometry">
            <mxRectangle y="20" width="30" height="850" as="alternateBounds" />
          </mxGeometry>
        </mxCell>
        <mxCell id="8a7OxCptvkne7IyluZtV-4" value="Start" style="ellipse;whiteSpace=wrap;html=1;aspect=fixed;fillColor=#fff2cc;strokeColor=#d6b656;" parent="8a7OxCptvkne7IyluZtV-3" vertex="1">
          <mxGeometry x="35" y="30" width="50" height="50" as="geometry" />
        </mxCell>
        <mxCell id="8a7OxCptvkne7IyluZtV-5" value="填寫報價單" style="rounded=0;whiteSpace=wrap;html=1;fillColor=#d5e8d4;strokeColor=#82b366;" parent="8a7OxCptvkne7IyluZtV-3" vertex="1">
          <mxGeometry x="20" y="100" width="80" height="40" as="geometry" />
        </mxCell>
        <mxCell id="8a7OxCptvkne7IyluZtV-6" style="edgeStyle=orthogonalEdgeStyle;rounded=0;orthogonalLoop=1;jettySize=auto;html=1;exitX=0.5;exitY=1;exitDx=0;exitDy=0;entryX=0.5;entryY=0;entryDx=0;entryDy=0;" parent="8a7OxCptvkne7IyluZtV-3" source="8a7OxCptvkne7IyluZtV-4" target="8a7OxCptvkne7IyluZtV-5" edge="1">
          <mxGeometry relative="1" as="geometry" />
        </mxCell>
        <mxCell id="8a7OxCptvkne7IyluZtV-8" value="業務/秘書" style="swimlane;html=1;startSize=20;fillColor=#f5f5f5;strokeColor=#666666;fontColor=#333333;" parent="8a7OxCptvkne7IyluZtV-2" vertex="1">
          <mxGeometry x="120" y="20" width="120" height="1140" as="geometry" />
        </mxCell>
        <mxCell id="8a7OxCptvkne7IyluZtV-16" value="&lt;div style=&quot;text-align: left&quot;&gt;報價內容確認&lt;/div&gt;" style="rounded=0;whiteSpace=wrap;html=1;fillColor=#d5e8d4;strokeColor=#82b366;" parent="8a7OxCptvkne7IyluZtV-8" vertex="1">
          <mxGeometry x="20" y="220" width="80" height="40" as="geometry" />
        </mxCell>
        <mxCell id="8a7OxCptvkne7IyluZtV-54" value="Y" style="edgeStyle=orthogonalEdgeStyle;rounded=0;orthogonalLoop=1;jettySize=auto;html=1;exitX=1;exitY=0.5;exitDx=0;exitDy=0;entryX=0.5;entryY=0;entryDx=0;entryDy=0;" parent="8a7OxCptvkne7IyluZtV-2" source="8a7OxCptvkne7IyluZtV-35" target="XYbNjnWtgX2BiHHnGsvQ-0" edge="1">
          <mxGeometry x="-0.9078" y="15" relative="1" as="geometry">
            <Array as="points">
              <mxPoint x="420" y="525" />
            </Array>
            <mxPoint x="537.22" y="900" as="targetPoint" />
            <mxPoint x="207.22" y="740" as="sourcePoint" />
            <mxPoint as="offset" />
          </mxGeometry>
        </mxCell>
        <mxCell id="8a7OxCptvkne7IyluZtV-15" style="edgeStyle=orthogonalEdgeStyle;rounded=0;orthogonalLoop=1;jettySize=auto;html=1;exitX=0.5;exitY=1;exitDx=0;exitDy=0;entryX=0.5;entryY=0;entryDx=0;entryDy=0;" parent="8a7OxCptvkne7IyluZtV-2" source="8a7OxCptvkne7IyluZtV-16" target="8a7OxCptvkne7IyluZtV-14" edge="1">
          <mxGeometry relative="1" as="geometry">
            <mxPoint x="180" y="300" as="targetPoint" />
          </mxGeometry>
        </mxCell>
        <mxCell id="8a7OxCptvkne7IyluZtV-30" value="理級主管" style="swimlane;html=1;startSize=20;fillColor=#f5f5f5;strokeColor=#666666;fontColor=#333333;" parent="8a7OxCptvkne7IyluZtV-2" vertex="1">
          <mxGeometry x="240" y="20" width="120" height="1140" as="geometry">
            <mxRectangle y="20" width="30" height="850" as="alternateBounds" />
          </mxGeometry>
        </mxCell>
        <mxCell id="8a7OxCptvkne7IyluZtV-35" value="差價是否&lt;br&gt;超出標準" style="rhombus;whiteSpace=wrap;html=1;fillColor=#dae8fc;strokeColor=#6c8ebf;" parent="8a7OxCptvkne7IyluZtV-30" vertex="1">
          <mxGeometry x="30.5" y="480" width="59" height="50" as="geometry" />
        </mxCell>
        <mxCell id="8a7OxCptvkne7IyluZtV-14" value="&lt;div style=&quot;text-align: left&quot;&gt;&lt;span&gt;&lt;font color=&quot;#333333&quot;&gt;理級主管簽核&lt;/font&gt;&lt;/span&gt;&lt;/div&gt;" style="rounded=0;whiteSpace=wrap;html=1;fillColor=#d5e8d4;strokeColor=#82b366;" parent="8a7OxCptvkne7IyluZtV-30" vertex="1">
          <mxGeometry x="20" y="340" width="80" height="40" as="geometry" />
        </mxCell>
        <mxCell id="-mkZp9XQyUivySYb14d--5" value="是否&lt;br&gt;OK" style="rhombus;whiteSpace=wrap;html=1;fillColor=#dae8fc;strokeColor=#6c8ebf;" parent="8a7OxCptvkne7IyluZtV-30" vertex="1">
          <mxGeometry x="30.5" y="400" width="59" height="50" as="geometry" />
        </mxCell>
        <mxCell id="8a7OxCptvkne7IyluZtV-13" style="edgeStyle=orthogonalEdgeStyle;rounded=0;orthogonalLoop=1;jettySize=auto;html=1;exitX=0.5;exitY=1;exitDx=0;exitDy=0;entryX=0.5;entryY=0;entryDx=0;entryDy=0;" parent="8a7OxCptvkne7IyluZtV-30" source="8a7OxCptvkne7IyluZtV-14" target="-mkZp9XQyUivySYb14d--5" edge="1">
          <mxGeometry relative="1" as="geometry">
            <mxPoint x="60" y="400" as="targetPoint" />
          </mxGeometry>
        </mxCell>
        <mxCell id="-mkZp9XQyUivySYb14d--6" style="edgeStyle=orthogonalEdgeStyle;rounded=0;orthogonalLoop=1;jettySize=auto;html=1;exitX=0.5;exitY=1;exitDx=0;exitDy=0;entryX=0.5;entryY=0;entryDx=0;entryDy=0;" parent="8a7OxCptvkne7IyluZtV-30" source="-mkZp9XQyUivySYb14d--5" target="8a7OxCptvkne7IyluZtV-35" edge="1">
          <mxGeometry relative="1" as="geometry">
            <Array as="points">
              <mxPoint x="60" y="480" />
            </Array>
            <mxPoint x="50" y="350" as="targetPoint" />
            <mxPoint x="-20.5" y="315" as="sourcePoint" />
          </mxGeometry>
        </mxCell>
        <mxCell id="-mkZp9XQyUivySYb14d--7" value="Y" style="edgeLabel;html=1;align=center;verticalAlign=middle;resizable=0;points=[];" parent="-mkZp9XQyUivySYb14d--6" vertex="1" connectable="0">
          <mxGeometry x="-0.8947" relative="1" as="geometry">
            <mxPoint x="10" y="9" as="offset" />
          </mxGeometry>
        </mxCell>
        <mxCell id="8a7OxCptvkne7IyluZtV-41" value="處級或以上主管" style="swimlane;html=1;startSize=20;fillColor=#f5f5f5;strokeColor=#666666;fontColor=#333333;" parent="8a7OxCptvkne7IyluZtV-2" vertex="1">
          <mxGeometry x="360" y="20" width="120" height="1140" as="geometry" />
        </mxCell>
        <mxCell id="XYbNjnWtgX2BiHHnGsvQ-0" value="&lt;span style=&quot;color: rgb(51 , 51 , 51) ; text-align: left&quot;&gt;處級(或以上)主管簽核&lt;/span&gt;" style="rounded=0;whiteSpace=wrap;html=1;fillColor=#d5e8d4;strokeColor=#82b366;" parent="8a7OxCptvkne7IyluZtV-41" vertex="1">
          <mxGeometry x="20" y="580" width="80" height="40" as="geometry" />
        </mxCell>
        <mxCell id="-mkZp9XQyUivySYb14d--10" value="是否&lt;br&gt;OK" style="rhombus;whiteSpace=wrap;html=1;fillColor=#dae8fc;strokeColor=#6c8ebf;" parent="8a7OxCptvkne7IyluZtV-41" vertex="1">
          <mxGeometry x="30.5" y="640" width="59" height="50" as="geometry" />
        </mxCell>
        <mxCell id="r6IpfxlkoywZjtKEOdgF-0" style="edgeStyle=orthogonalEdgeStyle;rounded=0;orthogonalLoop=1;jettySize=auto;html=1;exitX=0.5;exitY=1;exitDx=0;exitDy=0;entryX=0.5;entryY=0;entryDx=0;entryDy=0;" parent="8a7OxCptvkne7IyluZtV-41" source="XYbNjnWtgX2BiHHnGsvQ-0" target="-mkZp9XQyUivySYb14d--10" edge="1">
          <mxGeometry relative="1" as="geometry">
            <mxPoint x="179" y="790" as="targetPoint" />
          </mxGeometry>
        </mxCell>
        <mxCell id="8a7OxCptvkne7IyluZtV-19" value="END" style="ellipse;whiteSpace=wrap;html=1;aspect=fixed;fillColor=#fff2cc;strokeColor=#d6b656;" parent="8a7OxCptvkne7IyluZtV-41" vertex="1">
          <mxGeometry x="35" y="900" width="50" height="50" as="geometry" />
        </mxCell>
        <mxCell id="8a7OxCptvkne7IyluZtV-20" style="edgeStyle=orthogonalEdgeStyle;rounded=0;orthogonalLoop=1;jettySize=auto;html=1;exitX=0.5;exitY=1;exitDx=0;exitDy=0;entryX=0.5;entryY=0;entryDx=0;entryDy=0;" parent="8a7OxCptvkne7IyluZtV-41" source="-mkZp9XQyUivySYb14d--10" target="8a7OxCptvkne7IyluZtV-19" edge="1">
          <mxGeometry relative="1" as="geometry">
            <Array as="points">
              <mxPoint x="60" y="880" />
              <mxPoint x="60" y="880" />
            </Array>
            <mxPoint x="-310" y="1060" as="targetPoint" />
            <mxPoint x="-180" y="1060" as="sourcePoint" />
          </mxGeometry>
        </mxCell>
        <mxCell id="8a7OxCptvkne7IyluZtV-21" value="Y" style="edgeLabel;html=1;align=center;verticalAlign=middle;resizable=0;points=[];" parent="8a7OxCptvkne7IyluZtV-20" vertex="1" connectable="0">
          <mxGeometry x="-0.8947" relative="1" as="geometry">
            <mxPoint x="18" y="-1" as="offset" />
          </mxGeometry>
        </mxCell>
        <mxCell id="8a7OxCptvkne7IyluZtV-44" value="" style="swimlane;html=1;startSize=20;fillColor=#f5f5f5;strokeColor=#666666;fontColor=#333333;" parent="8a7OxCptvkne7IyluZtV-2" vertex="1">
          <mxGeometry x="480" y="20" width="120" height="1140" as="geometry" />
        </mxCell>
        <mxCell id="8a7OxCptvkne7IyluZtV-46" value="其他作業區" style="swimlane;html=1;startSize=20;fillColor=#f5f5f5;strokeColor=#666666;fontColor=#333333;" parent="8a7OxCptvkne7IyluZtV-2" vertex="1">
          <mxGeometry x="600" y="20" width="120" height="1140" as="geometry" />
        </mxCell>
        <mxCell id="-mkZp9XQyUivySYb14d--8" style="edgeStyle=orthogonalEdgeStyle;rounded=0;orthogonalLoop=1;jettySize=auto;html=1;strokeColor=#FF0000;entryX=0;entryY=0.5;entryDx=0;entryDy=0;exitX=0;exitY=0.5;exitDx=0;exitDy=0;" parent="8a7OxCptvkne7IyluZtV-2" source="-mkZp9XQyUivySYb14d--5" target="8a7OxCptvkne7IyluZtV-16" edge="1">
          <mxGeometry relative="1" as="geometry">
            <mxPoint x="30.000000000000114" y="150" as="targetPoint" />
            <mxPoint x="160.5" y="385" as="sourcePoint" />
            <Array as="points">
              <mxPoint x="130" y="445" />
              <mxPoint x="130" y="260" />
            </Array>
          </mxGeometry>
        </mxCell>
        <mxCell id="-mkZp9XQyUivySYb14d--9" value="N" style="edgeLabel;html=1;align=center;verticalAlign=middle;resizable=0;points=[];" parent="-mkZp9XQyUivySYb14d--8" vertex="1" connectable="0">
          <mxGeometry x="-0.7931" relative="1" as="geometry">
            <mxPoint x="24" y="-10" as="offset" />
          </mxGeometry>
        </mxCell>
        <mxCell id="-mkZp9XQyUivySYb14d--11" style="edgeStyle=orthogonalEdgeStyle;rounded=0;orthogonalLoop=1;jettySize=auto;html=1;strokeColor=#FF0000;exitX=1;exitY=0.5;exitDx=0;exitDy=0;entryX=1;entryY=0.5;entryDx=0;entryDy=0;" parent="8a7OxCptvkne7IyluZtV-2" source="-mkZp9XQyUivySYb14d--10" target="8a7OxCptvkne7IyluZtV-16" edge="1">
          <mxGeometry relative="1" as="geometry">
            <mxPoint x="500" y="450" as="targetPoint" />
            <mxPoint x="310" y="610" as="sourcePoint" />
            <Array as="points">
              <mxPoint x="470" y="685" />
              <mxPoint x="470" y="260" />
            </Array>
          </mxGeometry>
        </mxCell>
        <mxCell id="-mkZp9XQyUivySYb14d--12" value="N" style="edgeLabel;html=1;align=center;verticalAlign=middle;resizable=0;points=[];" parent="-mkZp9XQyUivySYb14d--11" vertex="1" connectable="0">
          <mxGeometry x="-0.9124" relative="1" as="geometry">
            <mxPoint x="-20" y="-7" as="offset" />
          </mxGeometry>
        </mxCell>
        <mxCell id="8a7OxCptvkne7IyluZtV-36" style="edgeStyle=orthogonalEdgeStyle;rounded=0;orthogonalLoop=1;jettySize=auto;html=1;strokeColor=#FF0000;entryX=0;entryY=0.5;entryDx=0;entryDy=0;exitX=0.5;exitY=1;exitDx=0;exitDy=0;" parent="8a7OxCptvkne7IyluZtV-2" source="8a7OxCptvkne7IyluZtV-35" target="8a7OxCptvkne7IyluZtV-19" edge="1">
          <mxGeometry relative="1" as="geometry">
            <mxPoint x="317.345" y="840" as="targetPoint" />
            <mxPoint x="300" y="600" as="sourcePoint" />
            <Array as="points">
              <mxPoint x="300" y="945" />
            </Array>
          </mxGeometry>
        </mxCell>
        <mxCell id="8a7OxCptvkne7IyluZtV-37" value="N" style="edgeLabel;html=1;align=center;verticalAlign=middle;resizable=0;points=[];" parent="8a7OxCptvkne7IyluZtV-36" vertex="1" connectable="0">
          <mxGeometry x="-0.9124" relative="1" as="geometry">
            <mxPoint x="10" y="-1" as="offset" />
          </mxGeometry>
        </mxCell>
        <mxCell id="8a7OxCptvkne7IyluZtV-7" style="edgeStyle=orthogonalEdgeStyle;rounded=0;orthogonalLoop=1;jettySize=auto;html=1;exitX=0.5;exitY=1;exitDx=0;exitDy=0;entryX=0.5;entryY=0;entryDx=0;entryDy=0;" parent="8a7OxCptvkne7IyluZtV-2" source="8a7OxCptvkne7IyluZtV-5" target="8a7OxCptvkne7IyluZtV-16" edge="1">
          <mxGeometry relative="1" as="geometry">
            <Array as="points">
              <mxPoint x="60" y="200" />
              <mxPoint x="180" y="200" />
            </Array>
            <mxPoint x="60" y="190" as="targetPoint" />
          </mxGeometry>
        </mxCell>
        <mxCell id="8a7OxCptvkne7IyluZtV-63" value="【&lt;span style=&quot;text-align: center&quot;&gt;填寫報價單&lt;/span&gt;】&lt;br&gt;新增機制：&lt;br&gt;1.直接填寫&lt;br&gt;2.選擇訂單匯入" style="shape=note;whiteSpace=wrap;html=1;backgroundOutline=1;darkOpacity=0.05;fillColor=#d5e8d4;strokeColor=#82b366;align=left;size=10;" parent="8a7OxCptvkne7IyluZtV-1" vertex="1">
          <mxGeometry x="722" y="120" width="100" height="60" as="geometry" />
        </mxCell>
        <mxCell id="8a7OxCptvkne7IyluZtV-64" value="【報價內容確認】&lt;br&gt;&lt;span style=&quot;color: rgb(0 , 0 , 0) ; text-align: center&quot;&gt;&amp;lt;說明&amp;gt;&lt;br&gt;新增或主管退件皆會到此關卡&lt;br&gt;&lt;br&gt;&amp;lt;權限人員&amp;gt;&lt;br&gt;業務及秘書&lt;br&gt;&lt;/span&gt;" style="shape=note;whiteSpace=wrap;html=1;backgroundOutline=1;darkOpacity=0.05;fillColor=#d5e8d4;strokeColor=#82b366;align=left;size=10;" parent="8a7OxCptvkne7IyluZtV-1" vertex="1">
          <mxGeometry x="722" y="240" width="100" height="110" as="geometry" />
        </mxCell>
        <mxCell id="8a7OxCptvkne7IyluZtV-69" value="【&lt;span style=&quot;text-align: center&quot;&gt;差價是否&lt;/span&gt;&lt;span style=&quot;text-align: center&quot;&gt;超標&lt;/span&gt;】&lt;br&gt;&lt;span style=&quot;text-align: center&quot;&gt;&amp;lt;規則說明&amp;gt;&lt;/span&gt;&lt;br&gt;(定價-報價)/定價%&lt;br&gt;*3%以內：理級D&lt;br&gt;*5%以內：處級F&lt;br&gt;*7%以內：協理副總G&lt;br&gt;*20%以內：總經理J&lt;br&gt;*20%以上：總經理J&lt;br&gt;*SZ：增加Peter簽核" style="shape=note;whiteSpace=wrap;html=1;backgroundOutline=1;darkOpacity=0.05;fillColor=#dae8fc;strokeColor=#6c8ebf;align=left;size=11;" parent="8a7OxCptvkne7IyluZtV-1" vertex="1">
          <mxGeometry x="722" y="500" width="102" height="200" as="geometry" />
        </mxCell>
        <mxCell id="8a7OxCptvkne7IyluZtV-70" value="【&lt;span style=&quot;color: rgb(51 , 51 , 51)&quot;&gt;理級主管簽核&lt;/span&gt;】&lt;br&gt;所有報價單預設至少簽至理級主管" style="shape=note;whiteSpace=wrap;html=1;backgroundOutline=1;darkOpacity=0.05;fillColor=#d5e8d4;strokeColor=#82b366;align=left;size=10;" parent="8a7OxCptvkne7IyluZtV-1" vertex="1">
          <mxGeometry x="722" y="360" width="100" height="50" as="geometry" />
        </mxCell>
      </root>
    </mxGraphModel>
  </diagram>
  <diagram name="20220401-一般報價" id="nV-px-LlGBrW0CJVSo5R">
    <mxGraphModel dx="981" dy="509" grid="1" gridSize="10" guides="1" tooltips="1" connect="1" arrows="1" fold="1" page="1" pageScale="1" pageWidth="827" pageHeight="1169" math="0" shadow="0">
      <root>
        <mxCell id="k39iRfPB8nFoaLMBSTnM-0" />
        <mxCell id="k39iRfPB8nFoaLMBSTnM-1" parent="k39iRfPB8nFoaLMBSTnM-0" />
        <mxCell id="k39iRfPB8nFoaLMBSTnM-2" value="&lt;span style=&quot;font-family: &amp;#34;calibri&amp;#34; ; font-size: 16px ; font-weight: 400 ; text-align: left&quot;&gt;業務報價系統-一般報價&lt;/span&gt;" style="swimlane;html=1;childLayout=stackLayout;resizeParent=1;resizeParentMax=0;startSize=20;fillColor=#bac8d3;strokeColor=#23445d;" vertex="1" parent="k39iRfPB8nFoaLMBSTnM-1">
          <mxGeometry width="720" height="1160" as="geometry">
            <mxRectangle x="10" y="10" width="130" height="20" as="alternateBounds" />
          </mxGeometry>
        </mxCell>
        <mxCell id="k39iRfPB8nFoaLMBSTnM-3" value="填單人" style="swimlane;html=1;startSize=20;fillColor=#f5f5f5;strokeColor=#666666;fontColor=#333333;" vertex="1" parent="k39iRfPB8nFoaLMBSTnM-2">
          <mxGeometry y="20" width="120" height="1140" as="geometry">
            <mxRectangle y="20" width="30" height="850" as="alternateBounds" />
          </mxGeometry>
        </mxCell>
        <mxCell id="k39iRfPB8nFoaLMBSTnM-4" value="Start" style="ellipse;whiteSpace=wrap;html=1;aspect=fixed;fillColor=#fff2cc;strokeColor=#d6b656;" vertex="1" parent="k39iRfPB8nFoaLMBSTnM-3">
          <mxGeometry x="35" y="30" width="50" height="50" as="geometry" />
        </mxCell>
        <mxCell id="k39iRfPB8nFoaLMBSTnM-5" value="填寫報價單" style="rounded=0;whiteSpace=wrap;html=1;fillColor=#d5e8d4;strokeColor=#82b366;" vertex="1" parent="k39iRfPB8nFoaLMBSTnM-3">
          <mxGeometry x="20" y="100" width="80" height="40" as="geometry" />
        </mxCell>
        <mxCell id="k39iRfPB8nFoaLMBSTnM-6" style="edgeStyle=orthogonalEdgeStyle;rounded=0;orthogonalLoop=1;jettySize=auto;html=1;exitX=0.5;exitY=1;exitDx=0;exitDy=0;entryX=0.5;entryY=0;entryDx=0;entryDy=0;" edge="1" parent="k39iRfPB8nFoaLMBSTnM-3" source="k39iRfPB8nFoaLMBSTnM-4" target="k39iRfPB8nFoaLMBSTnM-5">
          <mxGeometry relative="1" as="geometry" />
        </mxCell>
        <mxCell id="k39iRfPB8nFoaLMBSTnM-7" value="業務/秘書" style="swimlane;html=1;startSize=20;fillColor=#f5f5f5;strokeColor=#666666;fontColor=#333333;" vertex="1" parent="k39iRfPB8nFoaLMBSTnM-2">
          <mxGeometry x="120" y="20" width="120" height="1140" as="geometry" />
        </mxCell>
        <mxCell id="k39iRfPB8nFoaLMBSTnM-8" value="&lt;div style=&quot;text-align: left&quot;&gt;待處理&lt;/div&gt;" style="rounded=0;whiteSpace=wrap;html=1;fillColor=#d5e8d4;strokeColor=#82b366;" vertex="1" parent="k39iRfPB8nFoaLMBSTnM-7">
          <mxGeometry x="20" y="310" width="80" height="40" as="geometry" />
        </mxCell>
        <mxCell id="k39iRfPB8nFoaLMBSTnM-38" value="&lt;div style=&quot;text-align: left&quot;&gt;暫存&lt;/div&gt;" style="rounded=0;whiteSpace=wrap;html=1;fillColor=#d5e8d4;strokeColor=#82b366;" vertex="1" parent="k39iRfPB8nFoaLMBSTnM-7">
          <mxGeometry x="20" y="190" width="80" height="40" as="geometry" />
        </mxCell>
        <mxCell id="k39iRfPB8nFoaLMBSTnM-9" value="Y" style="edgeStyle=orthogonalEdgeStyle;rounded=0;orthogonalLoop=1;jettySize=auto;html=1;exitX=0.5;exitY=1;exitDx=0;exitDy=0;entryX=0.5;entryY=0;entryDx=0;entryDy=0;" edge="1" parent="k39iRfPB8nFoaLMBSTnM-2" source="k39iRfPB8nFoaLMBSTnM-12" target="k39iRfPB8nFoaLMBSTnM-19">
          <mxGeometry x="-0.9078" y="15" relative="1" as="geometry">
            <Array as="points">
              <mxPoint x="300" y="680" />
              <mxPoint x="420" y="680" />
            </Array>
            <mxPoint x="537.22" y="1005" as="targetPoint" />
            <mxPoint x="207.22" y="845" as="sourcePoint" />
            <mxPoint as="offset" />
          </mxGeometry>
        </mxCell>
        <mxCell id="k39iRfPB8nFoaLMBSTnM-10" style="edgeStyle=orthogonalEdgeStyle;rounded=0;orthogonalLoop=1;jettySize=auto;html=1;exitX=0.5;exitY=1;exitDx=0;exitDy=0;entryX=0.25;entryY=0;entryDx=0;entryDy=0;" edge="1" parent="k39iRfPB8nFoaLMBSTnM-2" source="k39iRfPB8nFoaLMBSTnM-8" target="k39iRfPB8nFoaLMBSTnM-13">
          <mxGeometry relative="1" as="geometry">
            <mxPoint x="180" y="405" as="targetPoint" />
          </mxGeometry>
        </mxCell>
        <mxCell id="k39iRfPB8nFoaLMBSTnM-27" style="edgeStyle=orthogonalEdgeStyle;rounded=0;orthogonalLoop=1;jettySize=auto;html=1;strokeColor=#FF0000;entryX=0;entryY=0.5;entryDx=0;entryDy=0;exitX=0;exitY=0.5;exitDx=0;exitDy=0;" edge="1" parent="k39iRfPB8nFoaLMBSTnM-2" source="k39iRfPB8nFoaLMBSTnM-14" target="k39iRfPB8nFoaLMBSTnM-8">
          <mxGeometry relative="1" as="geometry">
            <mxPoint x="30.000000000000114" y="255" as="targetPoint" />
            <mxPoint x="160.5" y="490" as="sourcePoint" />
            <Array as="points">
              <mxPoint x="130" y="550" />
              <mxPoint x="130" y="350" />
            </Array>
          </mxGeometry>
        </mxCell>
        <mxCell id="k39iRfPB8nFoaLMBSTnM-28" value="N" style="edgeLabel;html=1;align=center;verticalAlign=middle;resizable=0;points=[];" vertex="1" connectable="0" parent="k39iRfPB8nFoaLMBSTnM-27">
          <mxGeometry x="-0.7931" relative="1" as="geometry">
            <mxPoint x="24" y="-10" as="offset" />
          </mxGeometry>
        </mxCell>
        <mxCell id="k39iRfPB8nFoaLMBSTnM-29" style="edgeStyle=orthogonalEdgeStyle;rounded=0;orthogonalLoop=1;jettySize=auto;html=1;strokeColor=#FF0000;exitX=0;exitY=0.5;exitDx=0;exitDy=0;entryX=0;entryY=0.25;entryDx=0;entryDy=0;" edge="1" parent="k39iRfPB8nFoaLMBSTnM-2" source="k39iRfPB8nFoaLMBSTnM-20" target="k39iRfPB8nFoaLMBSTnM-8">
          <mxGeometry relative="1" as="geometry">
            <mxPoint x="500" y="555" as="targetPoint" />
            <mxPoint x="310" y="715" as="sourcePoint" />
            <Array as="points">
              <mxPoint x="110" y="815" />
              <mxPoint x="110" y="340" />
            </Array>
          </mxGeometry>
        </mxCell>
        <mxCell id="k39iRfPB8nFoaLMBSTnM-30" value="N" style="edgeLabel;html=1;align=center;verticalAlign=middle;resizable=0;points=[];" vertex="1" connectable="0" parent="k39iRfPB8nFoaLMBSTnM-29">
          <mxGeometry x="-0.9124" relative="1" as="geometry">
            <mxPoint x="25" y="-10" as="offset" />
          </mxGeometry>
        </mxCell>
        <mxCell id="k39iRfPB8nFoaLMBSTnM-11" value="理級主管" style="swimlane;html=1;startSize=20;fillColor=#f5f5f5;strokeColor=#666666;fontColor=#333333;" vertex="1" parent="k39iRfPB8nFoaLMBSTnM-2">
          <mxGeometry x="240" y="20" width="120" height="1140" as="geometry">
            <mxRectangle y="20" width="30" height="850" as="alternateBounds" />
          </mxGeometry>
        </mxCell>
        <mxCell id="k39iRfPB8nFoaLMBSTnM-12" value="差價是否&lt;br&gt;超出標準" style="rhombus;whiteSpace=wrap;html=1;fillColor=#dae8fc;strokeColor=#6c8ebf;" vertex="1" parent="k39iRfPB8nFoaLMBSTnM-11">
          <mxGeometry x="30.5" y="585" width="59" height="50" as="geometry" />
        </mxCell>
        <mxCell id="k39iRfPB8nFoaLMBSTnM-13" value="&lt;div style=&quot;text-align: left&quot;&gt;&lt;span&gt;&lt;font color=&quot;#333333&quot;&gt;主管簽核&lt;/font&gt;&lt;/span&gt;&lt;/div&gt;" style="rounded=0;whiteSpace=wrap;html=1;fillColor=#d5e8d4;strokeColor=#82b366;" vertex="1" parent="k39iRfPB8nFoaLMBSTnM-11">
          <mxGeometry x="20" y="400" width="80" height="40" as="geometry" />
        </mxCell>
        <mxCell id="k39iRfPB8nFoaLMBSTnM-14" value="是否&lt;br&gt;OK" style="rhombus;whiteSpace=wrap;html=1;fillColor=#dae8fc;strokeColor=#6c8ebf;" vertex="1" parent="k39iRfPB8nFoaLMBSTnM-11">
          <mxGeometry x="30.5" y="505" width="59" height="50" as="geometry" />
        </mxCell>
        <mxCell id="k39iRfPB8nFoaLMBSTnM-15" style="edgeStyle=orthogonalEdgeStyle;rounded=0;orthogonalLoop=1;jettySize=auto;html=1;exitX=0.5;exitY=1;exitDx=0;exitDy=0;entryX=0.5;entryY=0;entryDx=0;entryDy=0;" edge="1" parent="k39iRfPB8nFoaLMBSTnM-11" source="k39iRfPB8nFoaLMBSTnM-13" target="k39iRfPB8nFoaLMBSTnM-14">
          <mxGeometry relative="1" as="geometry">
            <mxPoint x="60" y="505" as="targetPoint" />
          </mxGeometry>
        </mxCell>
        <mxCell id="k39iRfPB8nFoaLMBSTnM-16" style="edgeStyle=orthogonalEdgeStyle;rounded=0;orthogonalLoop=1;jettySize=auto;html=1;exitX=0.5;exitY=1;exitDx=0;exitDy=0;entryX=0.5;entryY=0;entryDx=0;entryDy=0;" edge="1" parent="k39iRfPB8nFoaLMBSTnM-11" source="k39iRfPB8nFoaLMBSTnM-14" target="k39iRfPB8nFoaLMBSTnM-12">
          <mxGeometry relative="1" as="geometry">
            <Array as="points">
              <mxPoint x="60" y="585" />
            </Array>
            <mxPoint x="50" y="455" as="targetPoint" />
            <mxPoint x="-20.5" y="420" as="sourcePoint" />
          </mxGeometry>
        </mxCell>
        <mxCell id="k39iRfPB8nFoaLMBSTnM-17" value="Y" style="edgeLabel;html=1;align=center;verticalAlign=middle;resizable=0;points=[];" vertex="1" connectable="0" parent="k39iRfPB8nFoaLMBSTnM-16">
          <mxGeometry x="-0.8947" relative="1" as="geometry">
            <mxPoint x="10" y="9" as="offset" />
          </mxGeometry>
        </mxCell>
        <mxCell id="k39iRfPB8nFoaLMBSTnM-18" value="處級或以上主管" style="swimlane;html=1;startSize=20;fillColor=#f5f5f5;strokeColor=#666666;fontColor=#333333;" vertex="1" parent="k39iRfPB8nFoaLMBSTnM-2">
          <mxGeometry x="360" y="20" width="120" height="1140" as="geometry" />
        </mxCell>
        <mxCell id="k39iRfPB8nFoaLMBSTnM-19" value="&lt;span style=&quot;color: rgb(51 , 51 , 51) ; text-align: left&quot;&gt;主管簽核&lt;/span&gt;" style="rounded=0;whiteSpace=wrap;html=1;fillColor=#d5e8d4;strokeColor=#82b366;" vertex="1" parent="k39iRfPB8nFoaLMBSTnM-18">
          <mxGeometry x="20" y="685" width="80" height="40" as="geometry" />
        </mxCell>
        <mxCell id="k39iRfPB8nFoaLMBSTnM-20" value="是否&lt;br&gt;OK" style="rhombus;whiteSpace=wrap;html=1;fillColor=#dae8fc;strokeColor=#6c8ebf;" vertex="1" parent="k39iRfPB8nFoaLMBSTnM-18">
          <mxGeometry x="30.5" y="770" width="59" height="50" as="geometry" />
        </mxCell>
        <mxCell id="k39iRfPB8nFoaLMBSTnM-21" style="edgeStyle=orthogonalEdgeStyle;rounded=0;orthogonalLoop=1;jettySize=auto;html=1;exitX=0.5;exitY=1;exitDx=0;exitDy=0;entryX=0.5;entryY=0;entryDx=0;entryDy=0;" edge="1" parent="k39iRfPB8nFoaLMBSTnM-18" source="k39iRfPB8nFoaLMBSTnM-19" target="k39iRfPB8nFoaLMBSTnM-20">
          <mxGeometry relative="1" as="geometry">
            <mxPoint x="179" y="895" as="targetPoint" />
          </mxGeometry>
        </mxCell>
        <mxCell id="k39iRfPB8nFoaLMBSTnM-22" value="END" style="ellipse;whiteSpace=wrap;html=1;aspect=fixed;fillColor=#fff2cc;strokeColor=#d6b656;" vertex="1" parent="k39iRfPB8nFoaLMBSTnM-18">
          <mxGeometry x="35" y="900" width="50" height="50" as="geometry" />
        </mxCell>
        <mxCell id="k39iRfPB8nFoaLMBSTnM-23" style="edgeStyle=orthogonalEdgeStyle;rounded=0;orthogonalLoop=1;jettySize=auto;html=1;exitX=0.5;exitY=1;exitDx=0;exitDy=0;entryX=0.5;entryY=0;entryDx=0;entryDy=0;" edge="1" parent="k39iRfPB8nFoaLMBSTnM-18" source="k39iRfPB8nFoaLMBSTnM-20" target="k39iRfPB8nFoaLMBSTnM-22">
          <mxGeometry relative="1" as="geometry">
            <Array as="points">
              <mxPoint x="60" y="880" />
              <mxPoint x="60" y="880" />
            </Array>
            <mxPoint x="-310" y="1060" as="targetPoint" />
            <mxPoint x="-180" y="1060" as="sourcePoint" />
          </mxGeometry>
        </mxCell>
        <mxCell id="k39iRfPB8nFoaLMBSTnM-24" value="Y" style="edgeLabel;html=1;align=center;verticalAlign=middle;resizable=0;points=[];" vertex="1" connectable="0" parent="k39iRfPB8nFoaLMBSTnM-23">
          <mxGeometry x="-0.8947" relative="1" as="geometry">
            <mxPoint x="18" y="-1" as="offset" />
          </mxGeometry>
        </mxCell>
        <mxCell id="k39iRfPB8nFoaLMBSTnM-25" value="" style="swimlane;html=1;startSize=20;fillColor=#f5f5f5;strokeColor=#666666;fontColor=#333333;" vertex="1" parent="k39iRfPB8nFoaLMBSTnM-2">
          <mxGeometry x="480" y="20" width="120" height="1140" as="geometry" />
        </mxCell>
        <mxCell id="k39iRfPB8nFoaLMBSTnM-26" value="其他作業區" style="swimlane;html=1;startSize=20;fillColor=#f5f5f5;strokeColor=#666666;fontColor=#333333;" vertex="1" parent="k39iRfPB8nFoaLMBSTnM-2">
          <mxGeometry x="600" y="20" width="120" height="1140" as="geometry" />
        </mxCell>
        <mxCell id="k39iRfPB8nFoaLMBSTnM-31" style="edgeStyle=orthogonalEdgeStyle;rounded=0;orthogonalLoop=1;jettySize=auto;html=1;strokeColor=#FF0000;entryX=1;entryY=0.5;entryDx=0;entryDy=0;exitX=1;exitY=0.5;exitDx=0;exitDy=0;" edge="1" parent="k39iRfPB8nFoaLMBSTnM-2" source="k39iRfPB8nFoaLMBSTnM-12" target="k39iRfPB8nFoaLMBSTnM-22">
          <mxGeometry relative="1" as="geometry">
            <mxPoint x="317.345" y="840" as="targetPoint" />
            <mxPoint x="300" y="870" as="sourcePoint" />
            <Array as="points">
              <mxPoint x="470" y="630" />
              <mxPoint x="470" y="945" />
            </Array>
          </mxGeometry>
        </mxCell>
        <mxCell id="k39iRfPB8nFoaLMBSTnM-32" value="N" style="edgeLabel;html=1;align=center;verticalAlign=middle;resizable=0;points=[];" vertex="1" connectable="0" parent="k39iRfPB8nFoaLMBSTnM-31">
          <mxGeometry x="-0.9124" relative="1" as="geometry">
            <mxPoint x="-1" y="-10" as="offset" />
          </mxGeometry>
        </mxCell>
        <mxCell id="k39iRfPB8nFoaLMBSTnM-33" style="edgeStyle=orthogonalEdgeStyle;rounded=0;orthogonalLoop=1;jettySize=auto;html=1;exitX=0.5;exitY=1;exitDx=0;exitDy=0;entryX=0.5;entryY=0;entryDx=0;entryDy=0;" edge="1" parent="k39iRfPB8nFoaLMBSTnM-2" source="k39iRfPB8nFoaLMBSTnM-5" target="k39iRfPB8nFoaLMBSTnM-38">
          <mxGeometry relative="1" as="geometry">
            <Array as="points">
              <mxPoint x="60" y="180" />
              <mxPoint x="180" y="180" />
            </Array>
            <mxPoint x="60" y="190" as="targetPoint" />
          </mxGeometry>
        </mxCell>
        <mxCell id="k39iRfPB8nFoaLMBSTnM-39" style="edgeStyle=orthogonalEdgeStyle;rounded=0;orthogonalLoop=1;jettySize=auto;html=1;exitX=0.5;exitY=1;exitDx=0;exitDy=0;entryX=0.5;entryY=0;entryDx=0;entryDy=0;" edge="1" parent="k39iRfPB8nFoaLMBSTnM-2" source="k39iRfPB8nFoaLMBSTnM-38" target="k39iRfPB8nFoaLMBSTnM-13">
          <mxGeometry relative="1" as="geometry">
            <Array as="points">
              <mxPoint x="180" y="270" />
              <mxPoint x="300" y="270" />
            </Array>
          </mxGeometry>
        </mxCell>
        <mxCell id="k39iRfPB8nFoaLMBSTnM-34" value="【&lt;span style=&quot;text-align: center&quot;&gt;填寫報價單&lt;/span&gt;】&lt;br&gt;新增機制：&lt;br&gt;1.直接填寫&lt;br&gt;2.選擇訂單匯入" style="shape=note;whiteSpace=wrap;html=1;backgroundOutline=1;darkOpacity=0.05;fillColor=#d5e8d4;strokeColor=#82b366;align=left;size=10;" vertex="1" parent="k39iRfPB8nFoaLMBSTnM-1">
          <mxGeometry x="722" y="120" width="100" height="60" as="geometry" />
        </mxCell>
        <mxCell id="k39iRfPB8nFoaLMBSTnM-35" value="【暫存】&lt;br&gt;&lt;span style=&quot;color: rgb(0 , 0 , 0) ; text-align: center&quot;&gt;新增時到此關卡，待內容確認後送出&lt;br&gt;&lt;/span&gt;" style="shape=note;whiteSpace=wrap;html=1;backgroundOutline=1;darkOpacity=0.05;fillColor=#d5e8d4;strokeColor=#82b366;align=left;size=10;" vertex="1" parent="k39iRfPB8nFoaLMBSTnM-1">
          <mxGeometry x="722" y="210" width="100" height="50" as="geometry" />
        </mxCell>
        <mxCell id="k39iRfPB8nFoaLMBSTnM-36" value="【&lt;span style=&quot;text-align: center&quot;&gt;差價是否&lt;/span&gt;&lt;span style=&quot;text-align: center&quot;&gt;超標&lt;/span&gt;】&lt;br&gt;&lt;span style=&quot;text-align: center&quot;&gt;&amp;lt;規則說明&amp;gt;&lt;/span&gt;&lt;br&gt;(定價-報價)/定價%&lt;br&gt;*3%以內：理級D&lt;br&gt;*5%以內：處級F&lt;br&gt;*7%以內：協理副總G&lt;br&gt;*20%以內：總經理J&lt;br&gt;*20%以上：總經理J&lt;br&gt;*SZ：增加Peter簽核" style="shape=note;whiteSpace=wrap;html=1;backgroundOutline=1;darkOpacity=0.05;fillColor=#dae8fc;strokeColor=#6c8ebf;align=left;size=11;" vertex="1" parent="k39iRfPB8nFoaLMBSTnM-1">
          <mxGeometry x="722" y="605" width="102" height="200" as="geometry" />
        </mxCell>
        <mxCell id="k39iRfPB8nFoaLMBSTnM-37" value="【&lt;span style=&quot;color: rgb(51 , 51 , 51)&quot;&gt;主管簽核&lt;/span&gt;】&lt;br&gt;所有報價單預設至少簽至理級主管" style="shape=note;whiteSpace=wrap;html=1;backgroundOutline=1;darkOpacity=0.05;fillColor=#d5e8d4;strokeColor=#82b366;align=left;size=10;" vertex="1" parent="k39iRfPB8nFoaLMBSTnM-1">
          <mxGeometry x="722" y="420" width="100" height="50" as="geometry" />
        </mxCell>
        <mxCell id="k39iRfPB8nFoaLMBSTnM-40" value="【待處理】&lt;br&gt;&lt;span style=&quot;color: rgb(0 , 0 , 0) ; text-align: center&quot;&gt;主管退件到此關卡&lt;/span&gt;&lt;span style=&quot;text-align: center&quot;&gt;待內容確認後送出&lt;/span&gt;&lt;span style=&quot;color: rgb(0 , 0 , 0) ; text-align: center&quot;&gt;&lt;br&gt;&lt;/span&gt;" style="shape=note;whiteSpace=wrap;html=1;backgroundOutline=1;darkOpacity=0.05;fillColor=#d5e8d4;strokeColor=#82b366;align=left;size=10;" vertex="1" parent="k39iRfPB8nFoaLMBSTnM-1">
          <mxGeometry x="722" y="330" width="100" height="50" as="geometry" />
        </mxCell>
      </root>
    </mxGraphModel>
  </diagram>
  <diagram name="20220401-月結報價" id="fsGrhvHx4UdWDh-tuG1B">
    <mxGraphModel dx="1422" dy="738" grid="1" gridSize="10" guides="1" tooltips="1" connect="1" arrows="1" fold="1" page="1" pageScale="1" pageWidth="827" pageHeight="1169" math="0" shadow="0">
      <root>
        <mxCell id="lEHD_NwkMcY9gP_Q0OEt-0" />
        <mxCell id="lEHD_NwkMcY9gP_Q0OEt-1" parent="lEHD_NwkMcY9gP_Q0OEt-0" />
        <mxCell id="lEHD_NwkMcY9gP_Q0OEt-2" value="&lt;span style=&quot;font-family: &amp;#34;calibri&amp;#34; ; font-size: 16px ; font-weight: 400 ; text-align: left&quot;&gt;業務報價系統-月結報價&lt;/span&gt;" style="swimlane;html=1;childLayout=stackLayout;resizeParent=1;resizeParentMax=0;startSize=20;fillColor=#bac8d3;strokeColor=#23445d;" parent="lEHD_NwkMcY9gP_Q0OEt-1" vertex="1">
          <mxGeometry width="720" height="1160" as="geometry">
            <mxRectangle x="10" y="10" width="130" height="20" as="alternateBounds" />
          </mxGeometry>
        </mxCell>
        <mxCell id="lEHD_NwkMcY9gP_Q0OEt-3" value="填單人" style="swimlane;html=1;startSize=20;fillColor=#f5f5f5;strokeColor=#666666;fontColor=#333333;" parent="lEHD_NwkMcY9gP_Q0OEt-2" vertex="1">
          <mxGeometry y="20" width="120" height="1140" as="geometry">
            <mxRectangle y="20" width="30" height="850" as="alternateBounds" />
          </mxGeometry>
        </mxCell>
        <mxCell id="lEHD_NwkMcY9gP_Q0OEt-4" value="Start" style="ellipse;whiteSpace=wrap;html=1;aspect=fixed;fillColor=#fff2cc;strokeColor=#d6b656;" parent="lEHD_NwkMcY9gP_Q0OEt-3" vertex="1">
          <mxGeometry x="35" y="30" width="50" height="50" as="geometry" />
        </mxCell>
        <mxCell id="xWPgVT5UwP5wcvXfasxZ-9" style="edgeStyle=orthogonalEdgeStyle;rounded=0;orthogonalLoop=1;jettySize=auto;html=1;entryX=0.5;entryY=0;entryDx=0;entryDy=0;" parent="lEHD_NwkMcY9gP_Q0OEt-3" source="lEHD_NwkMcY9gP_Q0OEt-5" target="xWPgVT5UwP5wcvXfasxZ-7" edge="1">
          <mxGeometry relative="1" as="geometry" />
        </mxCell>
        <mxCell id="lEHD_NwkMcY9gP_Q0OEt-5" value="產生報價單" style="rounded=0;whiteSpace=wrap;html=1;fillColor=#d5e8d4;strokeColor=#82b366;" parent="lEHD_NwkMcY9gP_Q0OEt-3" vertex="1">
          <mxGeometry x="20" y="100" width="80" height="40" as="geometry" />
        </mxCell>
        <mxCell id="lEHD_NwkMcY9gP_Q0OEt-6" style="edgeStyle=orthogonalEdgeStyle;rounded=0;orthogonalLoop=1;jettySize=auto;html=1;exitX=0.5;exitY=1;exitDx=0;exitDy=0;entryX=0.5;entryY=0;entryDx=0;entryDy=0;" parent="lEHD_NwkMcY9gP_Q0OEt-3" source="lEHD_NwkMcY9gP_Q0OEt-4" target="lEHD_NwkMcY9gP_Q0OEt-5" edge="1">
          <mxGeometry relative="1" as="geometry" />
        </mxCell>
        <mxCell id="xWPgVT5UwP5wcvXfasxZ-7" value="差價是否&lt;br&gt;超出標準" style="rhombus;whiteSpace=wrap;html=1;fillColor=#dae8fc;strokeColor=#6c8ebf;" parent="lEHD_NwkMcY9gP_Q0OEt-3" vertex="1">
          <mxGeometry x="30.5" y="250" width="59" height="50" as="geometry" />
        </mxCell>
        <mxCell id="lEHD_NwkMcY9gP_Q0OEt-7" value="業務/秘書" style="swimlane;html=1;startSize=20;fillColor=#f5f5f5;strokeColor=#666666;fontColor=#333333;" parent="lEHD_NwkMcY9gP_Q0OEt-2" vertex="1">
          <mxGeometry x="120" y="20" width="120" height="1140" as="geometry" />
        </mxCell>
        <mxCell id="lEHD_NwkMcY9gP_Q0OEt-8" value="&lt;div style=&quot;text-align: left&quot;&gt;待處理&lt;/div&gt;" style="rounded=0;whiteSpace=wrap;html=1;fillColor=#d5e8d4;strokeColor=#82b366;" parent="lEHD_NwkMcY9gP_Q0OEt-7" vertex="1">
          <mxGeometry x="20" y="350" width="80" height="40" as="geometry" />
        </mxCell>
        <mxCell id="lEHD_NwkMcY9gP_Q0OEt-11" style="edgeStyle=orthogonalEdgeStyle;rounded=0;orthogonalLoop=1;jettySize=auto;html=1;exitX=0.5;exitY=1;exitDx=0;exitDy=0;entryX=0.25;entryY=0;entryDx=0;entryDy=0;" parent="lEHD_NwkMcY9gP_Q0OEt-2" source="lEHD_NwkMcY9gP_Q0OEt-8" target="lEHD_NwkMcY9gP_Q0OEt-18" edge="1">
          <mxGeometry relative="1" as="geometry">
            <mxPoint x="180" y="405" as="targetPoint" />
          </mxGeometry>
        </mxCell>
        <mxCell id="lEHD_NwkMcY9gP_Q0OEt-12" style="edgeStyle=orthogonalEdgeStyle;rounded=0;orthogonalLoop=1;jettySize=auto;html=1;strokeColor=#FF0000;entryX=0;entryY=0.5;entryDx=0;entryDy=0;exitX=0;exitY=0.5;exitDx=0;exitDy=0;" parent="lEHD_NwkMcY9gP_Q0OEt-2" source="lEHD_NwkMcY9gP_Q0OEt-19" target="lEHD_NwkMcY9gP_Q0OEt-8" edge="1">
          <mxGeometry relative="1" as="geometry">
            <mxPoint x="30.000000000000114" y="255" as="targetPoint" />
            <mxPoint x="160.5" y="490" as="sourcePoint" />
            <Array as="points">
              <mxPoint x="130" y="550" />
              <mxPoint x="130" y="390" />
            </Array>
          </mxGeometry>
        </mxCell>
        <mxCell id="lEHD_NwkMcY9gP_Q0OEt-13" value="N" style="edgeLabel;html=1;align=center;verticalAlign=middle;resizable=0;points=[];" parent="lEHD_NwkMcY9gP_Q0OEt-12" vertex="1" connectable="0">
          <mxGeometry x="-0.7931" relative="1" as="geometry">
            <mxPoint x="24" y="-10" as="offset" />
          </mxGeometry>
        </mxCell>
        <mxCell id="lEHD_NwkMcY9gP_Q0OEt-16" value="部門主管" style="swimlane;html=1;startSize=20;fillColor=#f5f5f5;strokeColor=#666666;fontColor=#333333;" parent="lEHD_NwkMcY9gP_Q0OEt-2" vertex="1">
          <mxGeometry x="240" y="20" width="120" height="1140" as="geometry">
            <mxRectangle y="20" width="30" height="850" as="alternateBounds" />
          </mxGeometry>
        </mxCell>
        <mxCell id="lEHD_NwkMcY9gP_Q0OEt-18" value="&lt;div style=&quot;text-align: left&quot;&gt;&lt;span&gt;&lt;font color=&quot;#333333&quot;&gt;主管簽核&lt;/font&gt;&lt;/span&gt;&lt;/div&gt;" style="rounded=0;whiteSpace=wrap;html=1;fillColor=#d5e8d4;strokeColor=#82b366;" parent="lEHD_NwkMcY9gP_Q0OEt-16" vertex="1">
          <mxGeometry x="20" y="430" width="80" height="40" as="geometry" />
        </mxCell>
        <mxCell id="lEHD_NwkMcY9gP_Q0OEt-19" value="是否&lt;br&gt;OK" style="rhombus;whiteSpace=wrap;html=1;fillColor=#dae8fc;strokeColor=#6c8ebf;" parent="lEHD_NwkMcY9gP_Q0OEt-16" vertex="1">
          <mxGeometry x="30.5" y="505" width="59" height="50" as="geometry" />
        </mxCell>
        <mxCell id="lEHD_NwkMcY9gP_Q0OEt-20" style="edgeStyle=orthogonalEdgeStyle;rounded=0;orthogonalLoop=1;jettySize=auto;html=1;exitX=0.5;exitY=1;exitDx=0;exitDy=0;entryX=0.5;entryY=0;entryDx=0;entryDy=0;" parent="lEHD_NwkMcY9gP_Q0OEt-16" source="lEHD_NwkMcY9gP_Q0OEt-18" target="lEHD_NwkMcY9gP_Q0OEt-19" edge="1">
          <mxGeometry relative="1" as="geometry">
            <mxPoint x="60" y="505" as="targetPoint" />
          </mxGeometry>
        </mxCell>
        <mxCell id="lEHD_NwkMcY9gP_Q0OEt-27" value="END" style="ellipse;whiteSpace=wrap;html=1;aspect=fixed;fillColor=#fff2cc;strokeColor=#d6b656;" parent="lEHD_NwkMcY9gP_Q0OEt-16" vertex="1">
          <mxGeometry x="35" y="590" width="50" height="50" as="geometry" />
        </mxCell>
        <mxCell id="lEHD_NwkMcY9gP_Q0OEt-21" style="edgeStyle=orthogonalEdgeStyle;rounded=0;orthogonalLoop=1;jettySize=auto;html=1;exitX=0.5;exitY=1;exitDx=0;exitDy=0;entryX=0.5;entryY=0;entryDx=0;entryDy=0;" parent="lEHD_NwkMcY9gP_Q0OEt-16" source="lEHD_NwkMcY9gP_Q0OEt-19" target="lEHD_NwkMcY9gP_Q0OEt-27" edge="1">
          <mxGeometry relative="1" as="geometry">
            <Array as="points" />
            <mxPoint x="60" y="580" as="targetPoint" />
            <mxPoint x="-20.5" y="420" as="sourcePoint" />
          </mxGeometry>
        </mxCell>
        <mxCell id="lEHD_NwkMcY9gP_Q0OEt-22" value="Y" style="edgeLabel;html=1;align=center;verticalAlign=middle;resizable=0;points=[];" parent="lEHD_NwkMcY9gP_Q0OEt-21" vertex="1" connectable="0">
          <mxGeometry x="-0.8947" relative="1" as="geometry">
            <mxPoint x="10" y="9" as="offset" />
          </mxGeometry>
        </mxCell>
        <mxCell id="lEHD_NwkMcY9gP_Q0OEt-23" value="處級或以上主管" style="swimlane;html=1;startSize=20;fillColor=#f5f5f5;strokeColor=#666666;fontColor=#333333;" parent="lEHD_NwkMcY9gP_Q0OEt-2" vertex="1">
          <mxGeometry x="360" y="20" width="120" height="1140" as="geometry" />
        </mxCell>
        <mxCell id="lEHD_NwkMcY9gP_Q0OEt-30" value="" style="swimlane;html=1;startSize=20;fillColor=#f5f5f5;strokeColor=#666666;fontColor=#333333;" parent="lEHD_NwkMcY9gP_Q0OEt-2" vertex="1">
          <mxGeometry x="480" y="20" width="120" height="1140" as="geometry" />
        </mxCell>
        <mxCell id="lEHD_NwkMcY9gP_Q0OEt-31" value="其他作業區" style="swimlane;html=1;startSize=20;fillColor=#f5f5f5;strokeColor=#666666;fontColor=#333333;" parent="lEHD_NwkMcY9gP_Q0OEt-2" vertex="1">
          <mxGeometry x="600" y="20" width="120" height="1140" as="geometry" />
        </mxCell>
        <mxCell id="lEHD_NwkMcY9gP_Q0OEt-34" style="edgeStyle=orthogonalEdgeStyle;rounded=0;orthogonalLoop=1;jettySize=auto;html=1;exitX=1;exitY=0.5;exitDx=0;exitDy=0;entryX=0.5;entryY=0;entryDx=0;entryDy=0;" parent="lEHD_NwkMcY9gP_Q0OEt-2" source="xWPgVT5UwP5wcvXfasxZ-7" target="lEHD_NwkMcY9gP_Q0OEt-18" edge="1">
          <mxGeometry relative="1" as="geometry">
            <Array as="points">
              <mxPoint x="300" y="295" />
            </Array>
            <mxPoint x="180" y="210" as="targetPoint" />
          </mxGeometry>
        </mxCell>
        <mxCell id="xWPgVT5UwP5wcvXfasxZ-8" value="Y" style="edgeLabel;html=1;align=center;verticalAlign=middle;resizable=0;points=[];" parent="lEHD_NwkMcY9gP_Q0OEt-34" vertex="1" connectable="0">
          <mxGeometry x="-0.8927" y="-1" relative="1" as="geometry">
            <mxPoint x="-11" y="-16" as="offset" />
          </mxGeometry>
        </mxCell>
        <mxCell id="xWPgVT5UwP5wcvXfasxZ-10" style="edgeStyle=orthogonalEdgeStyle;rounded=0;orthogonalLoop=1;jettySize=auto;html=1;strokeColor=#FF0000;entryX=0;entryY=0.5;entryDx=0;entryDy=0;exitX=0.5;exitY=1;exitDx=0;exitDy=0;" parent="lEHD_NwkMcY9gP_Q0OEt-2" source="xWPgVT5UwP5wcvXfasxZ-7" target="lEHD_NwkMcY9gP_Q0OEt-27" edge="1">
          <mxGeometry relative="1" as="geometry">
            <mxPoint x="454.99999999999864" y="954.9999999999998" as="targetPoint" />
            <mxPoint x="339.5" y="640" as="sourcePoint" />
            <Array as="points">
              <mxPoint x="60" y="635" />
            </Array>
          </mxGeometry>
        </mxCell>
        <mxCell id="xWPgVT5UwP5wcvXfasxZ-11" value="N" style="edgeLabel;html=1;align=center;verticalAlign=middle;resizable=0;points=[];" parent="xWPgVT5UwP5wcvXfasxZ-10" vertex="1" connectable="0">
          <mxGeometry x="-0.9124" relative="1" as="geometry">
            <mxPoint x="10" y="-3" as="offset" />
          </mxGeometry>
        </mxCell>
        <mxCell id="lEHD_NwkMcY9gP_Q0OEt-36" value="【產生&lt;span style=&quot;text-align: center&quot;&gt;報價單&lt;/span&gt;】&lt;br&gt;選擇客戶後，由excel匯入訂單資訊而生成報價單：&lt;br&gt;1.訂單編號&lt;br&gt;2.製造序號&lt;br&gt;3.總價" style="shape=note;whiteSpace=wrap;html=1;backgroundOutline=1;darkOpacity=0.05;fillColor=#d5e8d4;strokeColor=#82b366;align=left;size=10;" parent="lEHD_NwkMcY9gP_Q0OEt-1" vertex="1">
          <mxGeometry x="722" y="120" width="100" height="110" as="geometry" />
        </mxCell>
        <mxCell id="lEHD_NwkMcY9gP_Q0OEt-39" value="【&lt;span style=&quot;color: rgb(51 , 51 , 51)&quot;&gt;主管簽核&lt;/span&gt;】&lt;br&gt;報價單至少簽核至理級主管" style="shape=note;whiteSpace=wrap;html=1;backgroundOutline=1;darkOpacity=0.05;fillColor=#d5e8d4;strokeColor=#82b366;align=left;size=10;" parent="lEHD_NwkMcY9gP_Q0OEt-1" vertex="1">
          <mxGeometry x="722" y="440" width="100" height="50" as="geometry" />
        </mxCell>
        <mxCell id="lEHD_NwkMcY9gP_Q0OEt-40" value="【待處理】&lt;br&gt;&lt;span style=&quot;color: rgb(0 , 0 , 0) ; text-align: center&quot;&gt;主管退件到此關卡&lt;/span&gt;&lt;span style=&quot;text-align: center&quot;&gt;待內容確認後送出&lt;/span&gt;&lt;span style=&quot;color: rgb(0 , 0 , 0) ; text-align: center&quot;&gt;&lt;br&gt;&lt;/span&gt;" style="shape=note;whiteSpace=wrap;html=1;backgroundOutline=1;darkOpacity=0.05;fillColor=#d5e8d4;strokeColor=#82b366;align=left;size=10;" parent="lEHD_NwkMcY9gP_Q0OEt-1" vertex="1">
          <mxGeometry x="720" y="370" width="100" height="50" as="geometry" />
        </mxCell>
        <mxCell id="xWPgVT5UwP5wcvXfasxZ-12" value="【&lt;span style=&quot;text-align: center&quot;&gt;差價是否&lt;/span&gt;&lt;span style=&quot;text-align: center&quot;&gt;超標&lt;/span&gt;】&lt;br&gt;&lt;span style=&quot;text-align: center&quot;&gt;&amp;lt;規則說明&amp;gt;&lt;/span&gt;&lt;br&gt;(定價-報價)/定價%&lt;br&gt;*+-5%：理級D" style="shape=note;whiteSpace=wrap;html=1;backgroundOutline=1;darkOpacity=0.05;fillColor=#dae8fc;strokeColor=#6c8ebf;align=left;size=11;" parent="lEHD_NwkMcY9gP_Q0OEt-1" vertex="1">
          <mxGeometry x="722" y="270" width="102" height="70" as="geometry" />
        </mxCell>
      </root>
    </mxGraphModel>
  </diagram>
  <diagram name="20220412-月結報價" id="IFkkPovqAG96f6TLUXLX">
    <mxGraphModel dx="1422" dy="738" grid="1" gridSize="10" guides="1" tooltips="1" connect="1" arrows="1" fold="1" page="1" pageScale="1" pageWidth="827" pageHeight="1169" math="0" shadow="0">
      <root>
        <mxCell id="wCPZM-0W0ywvRGQjLtY5-0" />
        <mxCell id="wCPZM-0W0ywvRGQjLtY5-1" parent="wCPZM-0W0ywvRGQjLtY5-0" />
        <mxCell id="wCPZM-0W0ywvRGQjLtY5-2" value="&lt;span style=&quot;font-family: &amp;#34;calibri&amp;#34; ; font-size: 16px ; font-weight: 400 ; text-align: left&quot;&gt;業務報價系統-月結報價&lt;/span&gt;" style="swimlane;html=1;childLayout=stackLayout;resizeParent=1;resizeParentMax=0;startSize=20;fillColor=#bac8d3;strokeColor=#23445d;" vertex="1" parent="wCPZM-0W0ywvRGQjLtY5-1">
          <mxGeometry width="720" height="1160" as="geometry">
            <mxRectangle x="10" y="10" width="130" height="20" as="alternateBounds" />
          </mxGeometry>
        </mxCell>
        <mxCell id="wCPZM-0W0ywvRGQjLtY5-3" value="填單人" style="swimlane;html=1;startSize=20;fillColor=#f5f5f5;strokeColor=#666666;fontColor=#333333;" vertex="1" parent="wCPZM-0W0ywvRGQjLtY5-2">
          <mxGeometry y="20" width="120" height="1140" as="geometry">
            <mxRectangle y="20" width="30" height="850" as="alternateBounds" />
          </mxGeometry>
        </mxCell>
        <mxCell id="wCPZM-0W0ywvRGQjLtY5-4" value="Start" style="ellipse;whiteSpace=wrap;html=1;aspect=fixed;fillColor=#fff2cc;strokeColor=#d6b656;" vertex="1" parent="wCPZM-0W0ywvRGQjLtY5-3">
          <mxGeometry x="35" y="30" width="50" height="50" as="geometry" />
        </mxCell>
        <mxCell id="wCPZM-0W0ywvRGQjLtY5-6" value="產生報價單" style="rounded=0;whiteSpace=wrap;html=1;fillColor=#d5e8d4;strokeColor=#82b366;" vertex="1" parent="wCPZM-0W0ywvRGQjLtY5-3">
          <mxGeometry x="20" y="100" width="80" height="40" as="geometry" />
        </mxCell>
        <mxCell id="wCPZM-0W0ywvRGQjLtY5-7" style="edgeStyle=orthogonalEdgeStyle;rounded=0;orthogonalLoop=1;jettySize=auto;html=1;exitX=0.5;exitY=1;exitDx=0;exitDy=0;entryX=0.5;entryY=0;entryDx=0;entryDy=0;" edge="1" parent="wCPZM-0W0ywvRGQjLtY5-3" source="wCPZM-0W0ywvRGQjLtY5-4" target="wCPZM-0W0ywvRGQjLtY5-6">
          <mxGeometry relative="1" as="geometry" />
        </mxCell>
        <mxCell id="wCPZM-0W0ywvRGQjLtY5-9" value="業務/秘書" style="swimlane;html=1;startSize=20;fillColor=#f5f5f5;strokeColor=#666666;fontColor=#333333;" vertex="1" parent="wCPZM-0W0ywvRGQjLtY5-2">
          <mxGeometry x="120" y="20" width="120" height="1140" as="geometry" />
        </mxCell>
        <mxCell id="wCPZM-0W0ywvRGQjLtY5-10" value="&lt;div style=&quot;text-align: left&quot;&gt;待處理&lt;/div&gt;" style="rounded=0;whiteSpace=wrap;html=1;fillColor=#d5e8d4;strokeColor=#82b366;" vertex="1" parent="wCPZM-0W0ywvRGQjLtY5-9">
          <mxGeometry x="20" y="350" width="80" height="40" as="geometry" />
        </mxCell>
        <mxCell id="wCPZM-0W0ywvRGQjLtY5-11" style="edgeStyle=orthogonalEdgeStyle;rounded=0;orthogonalLoop=1;jettySize=auto;html=1;exitX=0.5;exitY=1;exitDx=0;exitDy=0;entryX=0.25;entryY=0;entryDx=0;entryDy=0;" edge="1" parent="wCPZM-0W0ywvRGQjLtY5-2" source="wCPZM-0W0ywvRGQjLtY5-10" target="wCPZM-0W0ywvRGQjLtY5-15">
          <mxGeometry relative="1" as="geometry">
            <mxPoint x="180" y="405" as="targetPoint" />
          </mxGeometry>
        </mxCell>
        <mxCell id="wCPZM-0W0ywvRGQjLtY5-12" style="edgeStyle=orthogonalEdgeStyle;rounded=0;orthogonalLoop=1;jettySize=auto;html=1;strokeColor=#FF0000;entryX=0;entryY=0.5;entryDx=0;entryDy=0;exitX=0;exitY=0.5;exitDx=0;exitDy=0;" edge="1" parent="wCPZM-0W0ywvRGQjLtY5-2" source="wCPZM-0W0ywvRGQjLtY5-16" target="wCPZM-0W0ywvRGQjLtY5-10">
          <mxGeometry relative="1" as="geometry">
            <mxPoint x="30.000000000000114" y="255" as="targetPoint" />
            <mxPoint x="160.5" y="490" as="sourcePoint" />
            <Array as="points">
              <mxPoint x="130" y="550" />
              <mxPoint x="130" y="390" />
            </Array>
          </mxGeometry>
        </mxCell>
        <mxCell id="wCPZM-0W0ywvRGQjLtY5-13" value="N" style="edgeLabel;html=1;align=center;verticalAlign=middle;resizable=0;points=[];" vertex="1" connectable="0" parent="wCPZM-0W0ywvRGQjLtY5-12">
          <mxGeometry x="-0.7931" relative="1" as="geometry">
            <mxPoint x="24" y="-10" as="offset" />
          </mxGeometry>
        </mxCell>
        <mxCell id="wCPZM-0W0ywvRGQjLtY5-14" value="部門主管" style="swimlane;html=1;startSize=20;fillColor=#f5f5f5;strokeColor=#666666;fontColor=#333333;" vertex="1" parent="wCPZM-0W0ywvRGQjLtY5-2">
          <mxGeometry x="240" y="20" width="120" height="1140" as="geometry">
            <mxRectangle y="20" width="30" height="850" as="alternateBounds" />
          </mxGeometry>
        </mxCell>
        <mxCell id="wCPZM-0W0ywvRGQjLtY5-15" value="&lt;div style=&quot;text-align: left&quot;&gt;&lt;span&gt;&lt;font color=&quot;#333333&quot;&gt;主管簽核&lt;/font&gt;&lt;/span&gt;&lt;/div&gt;" style="rounded=0;whiteSpace=wrap;html=1;fillColor=#d5e8d4;strokeColor=#82b366;" vertex="1" parent="wCPZM-0W0ywvRGQjLtY5-14">
          <mxGeometry x="20" y="430" width="80" height="40" as="geometry" />
        </mxCell>
        <mxCell id="wCPZM-0W0ywvRGQjLtY5-16" value="是否&lt;br&gt;核可" style="rhombus;whiteSpace=wrap;html=1;fillColor=#dae8fc;strokeColor=#6c8ebf;" vertex="1" parent="wCPZM-0W0ywvRGQjLtY5-14">
          <mxGeometry x="30.5" y="505" width="59" height="50" as="geometry" />
        </mxCell>
        <mxCell id="wCPZM-0W0ywvRGQjLtY5-17" style="edgeStyle=orthogonalEdgeStyle;rounded=0;orthogonalLoop=1;jettySize=auto;html=1;exitX=0.5;exitY=1;exitDx=0;exitDy=0;entryX=0.5;entryY=0;entryDx=0;entryDy=0;" edge="1" parent="wCPZM-0W0ywvRGQjLtY5-14" source="wCPZM-0W0ywvRGQjLtY5-15" target="wCPZM-0W0ywvRGQjLtY5-16">
          <mxGeometry relative="1" as="geometry">
            <mxPoint x="60" y="505" as="targetPoint" />
          </mxGeometry>
        </mxCell>
        <mxCell id="wCPZM-0W0ywvRGQjLtY5-18" value="END" style="ellipse;whiteSpace=wrap;html=1;aspect=fixed;fillColor=#fff2cc;strokeColor=#d6b656;" vertex="1" parent="wCPZM-0W0ywvRGQjLtY5-14">
          <mxGeometry x="35" y="590" width="50" height="50" as="geometry" />
        </mxCell>
        <mxCell id="wCPZM-0W0ywvRGQjLtY5-19" style="edgeStyle=orthogonalEdgeStyle;rounded=0;orthogonalLoop=1;jettySize=auto;html=1;exitX=0.5;exitY=1;exitDx=0;exitDy=0;entryX=0.5;entryY=0;entryDx=0;entryDy=0;" edge="1" parent="wCPZM-0W0ywvRGQjLtY5-14" source="wCPZM-0W0ywvRGQjLtY5-16" target="wCPZM-0W0ywvRGQjLtY5-18">
          <mxGeometry relative="1" as="geometry">
            <Array as="points" />
            <mxPoint x="60" y="580" as="targetPoint" />
            <mxPoint x="-20.5" y="420" as="sourcePoint" />
          </mxGeometry>
        </mxCell>
        <mxCell id="wCPZM-0W0ywvRGQjLtY5-20" value="Y" style="edgeLabel;html=1;align=center;verticalAlign=middle;resizable=0;points=[];" vertex="1" connectable="0" parent="wCPZM-0W0ywvRGQjLtY5-19">
          <mxGeometry x="-0.8947" relative="1" as="geometry">
            <mxPoint x="10" y="9" as="offset" />
          </mxGeometry>
        </mxCell>
        <mxCell id="wCPZM-0W0ywvRGQjLtY5-21" value="處級或以上主管" style="swimlane;html=1;startSize=20;fillColor=#f5f5f5;strokeColor=#666666;fontColor=#333333;" vertex="1" parent="wCPZM-0W0ywvRGQjLtY5-2">
          <mxGeometry x="360" y="20" width="120" height="1140" as="geometry" />
        </mxCell>
        <mxCell id="wCPZM-0W0ywvRGQjLtY5-22" value="" style="swimlane;html=1;startSize=20;fillColor=#f5f5f5;strokeColor=#666666;fontColor=#333333;" vertex="1" parent="wCPZM-0W0ywvRGQjLtY5-2">
          <mxGeometry x="480" y="20" width="120" height="1140" as="geometry" />
        </mxCell>
        <mxCell id="wCPZM-0W0ywvRGQjLtY5-23" value="其他作業區" style="swimlane;html=1;startSize=20;fillColor=#f5f5f5;strokeColor=#666666;fontColor=#333333;" vertex="1" parent="wCPZM-0W0ywvRGQjLtY5-2">
          <mxGeometry x="600" y="20" width="120" height="1140" as="geometry" />
        </mxCell>
        <mxCell id="wCPZM-0W0ywvRGQjLtY5-5" style="edgeStyle=orthogonalEdgeStyle;rounded=0;orthogonalLoop=1;jettySize=auto;html=1;entryX=0.5;entryY=0;entryDx=0;entryDy=0;" edge="1" parent="wCPZM-0W0ywvRGQjLtY5-2" source="wCPZM-0W0ywvRGQjLtY5-6" target="wCPZM-0W0ywvRGQjLtY5-15">
          <mxGeometry relative="1" as="geometry">
            <mxPoint x="60" y="270" as="targetPoint" />
          </mxGeometry>
        </mxCell>
        <mxCell id="wCPZM-0W0ywvRGQjLtY5-28" value="【產生&lt;span style=&quot;text-align: center&quot;&gt;報價單&lt;/span&gt;】&lt;br&gt;選擇客戶後，由excel匯入訂單資訊而生成報價單：&lt;br&gt;1.訂單編號&lt;br&gt;2.製造序號&lt;br&gt;3.總價" style="shape=note;whiteSpace=wrap;html=1;backgroundOutline=1;darkOpacity=0.05;fillColor=#d5e8d4;strokeColor=#82b366;align=left;size=10;" vertex="1" parent="wCPZM-0W0ywvRGQjLtY5-1">
          <mxGeometry x="722" y="120" width="100" height="110" as="geometry" />
        </mxCell>
        <mxCell id="wCPZM-0W0ywvRGQjLtY5-29" value="【&lt;span style=&quot;color: rgb(51 , 51 , 51)&quot;&gt;主管簽核&lt;/span&gt;】&lt;br&gt;報價單至少簽核至理級主管D" style="shape=note;whiteSpace=wrap;html=1;backgroundOutline=1;darkOpacity=0.05;fillColor=#d5e8d4;strokeColor=#82b366;align=left;size=10;" vertex="1" parent="wCPZM-0W0ywvRGQjLtY5-1">
          <mxGeometry x="722" y="440" width="100" height="50" as="geometry" />
        </mxCell>
        <mxCell id="wCPZM-0W0ywvRGQjLtY5-30" value="【待處理】&lt;br&gt;&lt;span style=&quot;color: rgb(0 , 0 , 0) ; text-align: center&quot;&gt;主管退件到此關卡&lt;/span&gt;&lt;span style=&quot;text-align: center&quot;&gt;待內容確認後送出&lt;/span&gt;&lt;span style=&quot;color: rgb(0 , 0 , 0) ; text-align: center&quot;&gt;&lt;br&gt;&lt;/span&gt;" style="shape=note;whiteSpace=wrap;html=1;backgroundOutline=1;darkOpacity=0.05;fillColor=#d5e8d4;strokeColor=#82b366;align=left;size=10;" vertex="1" parent="wCPZM-0W0ywvRGQjLtY5-1">
          <mxGeometry x="720" y="370" width="100" height="50" as="geometry" />
        </mxCell>
      </root>
    </mxGraphModel>
  </diagram>
</mxfile>
